<?xml version="1.0" encoding="UTF-8"?>
<svg version="1.1" xmlns="http://www.w3.org/2000/svg" width="512" height="512">
<path d="M0 0 C0.73452393 0.29326172 1.46904785 0.58652344 2.22583008 0.88867188 C7.7877398 3.28159444 10.44505721 5.99858841 12.734375 11.5625 C14.09686838 17.10850828 13.78814247 22.89198599 13.75 28.5625 C13.75773437 29.71234375 13.76546875 30.8621875 13.7734375 32.046875 C13.74149921 45.90809304 13.74149921 45.90809304 9.125 51.375 C0.68286329 58.41011392 -2.81409322 55.5625 -16.5 55.5625 C-16.5 176.0125 -16.5 296.4625 -16.5 420.5625 C-14.85 420.8925 -13.2 421.2225 -11.5 421.5625 C-0.21900974 427.74588128 7.39526931 436.90193545 11.6875 448.875 C13.50626922 457.12941417 14.71758842 464.84896377 10.5 472.5625 C6.14522861 476.81105745 3.42432055 477.68724907 -2.53899765 477.69672108 C-3.83510271 477.70117892 -5.13120777 477.70563676 -6.46658874 477.71022969 C-7.91862346 477.71014039 -9.37065817 477.70995052 -10.82269287 477.70967102 C-12.35456951 477.71296858 -13.88644529 477.71669391 -15.41831994 477.7208125 C-19.64360433 477.73085295 -23.86887451 477.73455257 -28.09416914 477.73720181 C-32.64508134 477.74109881 -37.19598222 477.75067755 -41.74688721 477.75941467 C-52.74506295 477.77919611 -63.74323964 477.78924737 -74.74142873 477.79814246 C-79.9168964 477.80252258 -85.09236304 477.8078901 -90.2678299 477.81313133 C-107.46579145 477.83014522 -124.66375236 477.8446403 -141.86172104 477.85188007 C-146.32675935 477.85379006 -150.79179765 477.85571038 -155.25683594 477.85766602 C-156.36663977 477.85814976 -157.4764436 477.8586335 -158.61987785 477.8591319 C-176.60560572 477.86743555 -194.59126716 477.89277742 -212.57696602 477.92524669 C-231.03016215 477.95828914 -249.48332449 477.97632628 -267.93655038 477.97952431 C-278.30236443 477.98169201 -288.6680816 477.99047859 -299.03386688 478.01598549 C-307.86033702 478.03765406 -316.68668675 478.04576189 -325.51318046 478.03601871 C-330.0182246 478.03146284 -334.5230201 478.03343467 -339.0280304 478.05278015 C-343.15114924 478.07033312 -347.27383664 478.06947856 -351.39695957 478.05388286 C-352.88959945 478.05149476 -354.3822686 478.0558923 -355.87486359 478.06771151 C-357.90240191 478.08277389 -359.93008725 478.0708009 -361.95763779 478.05748463 C-363.08432302 478.05846144 -364.21100826 478.05943824 -365.37183547 478.06044465 C-370.15398842 477.29921631 -373.35013882 475.02956426 -376.3125 471.25 C-380.15527033 462.55320399 -377.93624113 453.0191457 -374.8125 444.375 C-370.19097205 433.71125217 -361.78842362 425.70671181 -351.5 420.5625 C-350.51 420.5625 -349.52 420.5625 -348.5 420.5625 C-348.5 300.1125 -348.5 179.6625 -348.5 55.5625 C-354.77 55.5625 -361.04 55.5625 -367.5 55.5625 C-375.5744186 50.94854651 -375.5744186 50.94854651 -377.5 46.5625 C-378.92566668 40.69754197 -378.72326324 34.8149036 -378.75 28.8125 C-378.770625 27.67039063 -378.79125 26.52828125 -378.8125 25.3515625 C-378.84778521 17.67703014 -378.7882124 10.30115245 -373.50390625 4.29296875 C-368.98875794 1.69191452 -364.28410492 -0.22649989 -359.4375 -2.125 C-358.3347876 -2.55925293 -357.2320752 -2.99350586 -356.09594727 -3.44091797 C-273.2792616 -35.5143984 -180.70071654 -43.57199055 0 0 Z " fill="#FC3018" transform="translate(438.5,34.4375)"/>
<path d="M0 0 C54.78 0 109.56 0 166 0 C166 20.13 166 40.26 166 61 C159.21179688 61.02578125 152.42359375 61.0515625 145.4296875 61.078125 C141.12756644 61.10329341 136.82551569 61.1296263 132.5234375 61.16015625 C125.69596087 61.20849684 118.86864696 61.2525394 112.04101562 61.27099609 C106.53598998 61.28614729 101.0313902 61.32056607 95.52655411 61.36830902 C93.42707141 61.38313858 91.32752791 61.39104191 89.22799301 61.39188385 C86.28548607 61.39425046 83.34415895 61.42130618 80.40185547 61.45410156 C79.53510696 61.4490712 78.66835846 61.44404083 77.77534485 61.43885803 C72.3984787 61.53148806 69.19461789 62.32409022 65 66 C61.93525899 69.86057812 61.62168874 72.83533365 61.61181641 77.69873047 C61.60393097 78.67782379 61.60393097 78.67782379 61.59588623 79.67669678 C61.5827368 81.82377412 61.59140769 83.97010324 61.6015625 86.1171875 C61.59953981 87.61785015 61.59662674 89.11851184 61.59286499 90.61917114 C61.58844809 93.7613462 61.5948502 96.90326496 61.60888672 100.04541016 C61.62594895 104.05909661 61.61615264 108.07217987 61.59816933 112.08584404 C61.58728892 115.18466674 61.59079774 118.28334831 61.5985527 121.38217545 C61.60054451 122.86124875 61.5981315 124.34033516 61.59111404 125.81939316 C61.58343218 127.89409673 61.59519693 129.96784725 61.61181641 132.04248047 C61.61539658 133.80856155 61.61539658 133.80856155 61.61904907 135.61032104 C62.07771071 139.69146533 62.94184337 142.43373881 65 146 C70.36177288 150.15887584 74.78375869 150.58501843 81.42358398 150.54589844 C82.80037071 150.56140495 82.80037071 150.56140495 84.20497131 150.57722473 C87.21885969 150.60656698 90.23207399 150.6081501 93.24609375 150.609375 C95.34360529 150.62436241 97.44110505 150.64109074 99.53858948 150.65948486 C105.0442256 150.70310734 110.54970252 150.72314628 116.05548096 150.73822021 C121.67966098 150.75780959 127.30366955 150.79977761 132.92773438 150.83984375 C143.95179899 150.9150909 154.97573944 150.96334621 166 151 C166 160.57 166 170.14 166 180 C168.71476563 179.98428955 171.42953125 179.9685791 174.2265625 179.95239258 C183.21109995 179.90261182 192.1956436 179.86951709 201.18028259 179.84456348 C206.62595942 179.82892907 212.07149455 179.80773131 217.51708984 179.77368164 C222.77554715 179.74100905 228.03386843 179.72313026 233.29241943 179.71536827 C235.29541158 179.70983895 237.29839656 179.69904156 239.30133057 179.68280983 C242.11380923 179.66093064 244.92573073 179.65803746 247.73828125 179.65942383 C248.97151375 179.64324509 248.97151375 179.64324509 250.22966003 179.6267395 C256.05006695 179.65764432 262.09622894 180.30606287 266.56513977 184.45203876 C271.06968231 189.73810797 271.15287765 193.50616326 271.16113281 200.21972656 C271.16609772 201.17598434 271.17106262 202.13224213 271.17617798 203.11747742 C271.19082356 206.29186718 271.1976062 209.46620695 271.203125 212.640625 C271.20887524 214.84299725 271.21463299 217.04536949 271.22039795 219.2477417 C271.23091528 223.87138096 271.2367529 228.4950028 271.24023438 233.11865234 C271.24571538 239.04148394 271.26973205 244.96408522 271.29820633 250.88684464 C271.31683822 255.43876821 271.32203865 259.99063642 271.32357025 264.54259491 C271.32659692 266.72586067 271.33462592 268.90912545 271.34775543 271.09235382 C271.36482433 274.14931184 271.36293325 277.20570887 271.35644531 280.26269531 C271.3656601 281.16370468 271.37487488 282.06471405 271.3843689 282.99302673 C271.35055463 288.08329714 270.83782773 291.59564812 268 296 C262.57439407 301.01868549 258.14941822 301.1430058 251.03051758 301.11352539 C249.65460701 301.11374443 249.65460701 301.11374443 248.25090027 301.1139679 C245.21541997 301.11327057 242.18000084 301.10548656 239.14453125 301.09765625 C237.04131606 301.09579143 234.93810043 301.09436783 232.83488464 301.09336853 C227.29630334 301.08954839 221.7577482 301.07972237 216.21917725 301.06866455 C209.57536612 301.05664225 202.93154624 301.05204579 196.28772736 301.04621124 C186.19180002 301.03651037 176.09593014 301.01735027 166 301 C166 321.13 166 341.26 166 362 C161.25560547 362.02505615 156.51121094 362.0501123 151.62304688 362.07592773 C135.95286299 362.15937988 120.28271164 362.24802034 104.61257172 362.33933926 C95.11119289 362.39458245 85.6098103 362.44804963 76.10839844 362.49731445 C67.82554793 362.54026557 59.54272408 362.58657075 51.25991488 362.63687855 C46.87555067 362.66339166 42.49119145 362.68824213 38.10679626 362.70907402 C33.97659547 362.72875119 29.84644498 362.75292702 25.71628952 362.78049088 C24.20385533 362.78980295 22.69141016 362.79749882 21.17895889 362.80341911 C19.10602723 362.81178059 17.03321446 362.82608331 14.96032715 362.84178162 C13.22366917 362.85146044 13.22366917 362.85146044 11.45192719 362.8613348 C7.61888631 363.01530948 3.80650915 363.52418636 0 364 C0 243.88 0 123.76 0 0 Z " fill="#FC4E26" transform="translate(90,90)"/>
<path d="M0 0 C0.73452393 0.29326172 1.46904785 0.58652344 2.22583008 0.88867188 C7.7877398 3.28159444 10.44505721 5.99858841 12.734375 11.5625 C14.09686838 17.10850828 13.78814247 22.89198599 13.75 28.5625 C13.75773437 29.71234375 13.76546875 30.8621875 13.7734375 32.046875 C13.74149921 45.90809304 13.74149921 45.90809304 9.125 51.375 C4.74468503 55.02526247 1.97088005 55.81256263 -3.75106525 55.81976891 C-5.04356892 55.8262178 -6.33607258 55.83266669 -7.66774303 55.839311 C-9.10534409 55.83636861 -10.54294477 55.83323316 -11.98054504 55.82992554 C-13.50518685 55.8336609 -15.02982673 55.83826197 -16.55446357 55.84365618 C-20.75051607 55.85591576 -24.94648902 55.85562224 -29.14255536 55.85326743 C-33.66550947 55.85286001 -38.18843783 55.86389129 -42.71138 55.87338257 C-51.57522534 55.89000986 -60.43904407 55.8954929 -69.30290369 55.89660732 C-76.50670027 55.897557 -83.71048805 55.90166327 -90.91428185 55.90800858 C-111.33007958 55.92562588 -131.74585627 55.93484671 -152.16166166 55.93334763 C-153.26274935 55.93326772 -154.36383704 55.9331878 -155.49829102 55.93310547 C-157.15193495 55.93298283 -157.15193495 55.93298283 -158.83898582 55.93285771 C-176.70751791 55.93204472 -194.57596572 55.95118436 -212.44447342 55.9793822 C-230.78361113 56.00809478 -249.12270771 56.02192339 -267.46186846 56.02019465 C-277.76116823 56.01953017 -288.06037965 56.02504759 -298.35965919 56.04655075 C-307.12860067 56.06474119 -315.89741375 56.06912751 -324.6663659 56.0555319 C-329.14116459 56.04899137 -333.61571684 56.04892406 -338.09049225 56.0662384 C-342.18706972 56.08192645 -346.28320445 56.07914947 -350.37977084 56.06167014 C-351.86159838 56.05859079 -353.34345862 56.0622678 -354.82524762 56.07339029 C-368.66079465 56.17036188 -368.66079465 56.17036188 -374.5 51.5625 C-379.60668399 44.92381082 -378.71445417 36.79253789 -378.75 28.8125 C-378.770625 27.67039063 -378.79125 26.52828125 -378.8125 25.3515625 C-378.84778521 17.67703014 -378.7882124 10.30115245 -373.50390625 4.29296875 C-368.98875794 1.69191452 -364.28410492 -0.22649989 -359.4375 -2.125 C-358.3347876 -2.55925293 -357.2320752 -2.99350586 -356.09594727 -3.44091797 C-273.2792616 -35.5143984 -180.70071654 -43.57199055 0 0 Z " fill="#E61E14" transform="translate(438.5,34.4375)"/>
<path d="M0 0 C0.7767681 -0.00623996 1.55353621 -0.01247993 2.35384274 -0.01890898 C4.94722615 -0.03481763 7.53966686 -0.02224351 10.13305664 -0.00964355 C11.99610949 -0.01506563 13.85915804 -0.02218877 15.72219849 -0.03088379 C20.77591095 -0.04910985 25.82929655 -0.04205252 30.88301468 -0.02936745 C36.17332079 -0.01923611 41.46359903 -0.0286335 46.75390625 -0.03491211 C55.63782777 -0.04218811 64.52161626 -0.032602 73.40551758 -0.0135498 C83.67460892 0.0082188 93.94338259 0.0011674 104.21246624 -0.02085543 C113.03131929 -0.03901072 121.85007675 -0.0415671 130.66894245 -0.03110075 C135.93518086 -0.02486656 141.20126998 -0.02402822 146.46749878 -0.0372467 C151.41866797 -0.04880641 156.36942783 -0.04077713 161.32055283 -0.01766968 C163.1369954 -0.01238325 164.95347245 -0.01389524 166.76990128 -0.02272034 C169.25087356 -0.03366226 171.73053676 -0.01992957 174.21142578 0 C175.28799139 -0.01338433 175.28799139 -0.01338433 176.38630581 -0.02703905 C181.40807226 0.05113238 184.22295034 1.38544629 188.10571289 4.50793457 C192.57526879 9.55294292 192.67679068 13.76200481 192.60742188 20.1817627 C192.61552635 21.61702553 192.61552635 21.61702553 192.62379456 23.08128357 C192.63626961 26.23423493 192.61979848 29.38627101 192.60180664 32.53918457 C192.60196166 34.73584033 192.60345106 36.93249637 192.60621643 39.12915039 C192.60759988 43.72900509 192.59505102 48.32854779 192.57226562 52.92834473 C192.54388148 58.81973244 192.5466192 64.71060183 192.55935574 70.60202789 C192.56631605 75.13682469 192.55851953 79.67150203 192.54609871 84.20628357 C192.54158766 86.37836753 192.54124438 88.55046433 192.54516411 90.72254944 C192.54807971 93.7600018 192.53155207 96.79674391 192.50976562 99.83410645 C192.5165181 101.17619423 192.5165181 101.17619423 192.52340698 102.5453949 C192.46313368 107.61193703 191.92193632 111.12228884 189.10571289 115.50793457 C184.11804831 120.12152431 180.22160479 120.65679179 173.65484619 120.65510559 C172.88951403 120.65878228 172.12418188 120.66245897 171.33565784 120.66624707 C168.76323455 120.67728725 166.19085164 120.68112831 163.6184082 120.68493652 C161.77712882 120.6912009 159.9358507 120.69784768 158.09457397 120.70484924 C153.08618128 120.72226075 148.07779813 120.73281136 143.06938267 120.74105477 C139.94073127 120.74620447 136.81208284 120.75228021 133.68343353 120.7585659 C123.89585147 120.77761817 114.10827695 120.79184939 104.3206799 120.80017787 C93.02021031 120.80995229 81.71993648 120.83627706 70.41953588 120.87667876 C61.68652786 120.9068307 52.95357599 120.92164586 44.22051692 120.92495888 C39.00390996 120.92731034 33.78751215 120.9362834 28.570961 120.96142006 C23.66255791 120.98468969 18.75450183 120.98893843 13.84605789 120.97865868 C12.04614483 120.97816294 10.24621475 120.98449443 8.44635391 120.99821472 C5.98532548 121.01592298 3.52554386 121.00883345 1.06451416 120.99568176 C0.35545213 121.00665101 -0.3536099 121.01762025 -1.08415866 121.0289219 C-6.50107128 120.95923023 -9.50847415 119.45243909 -13.89428711 116.50793457 C-17.33590209 112.83687859 -18.0118886 109.26788246 -18.04145813 104.34683228 C-18.04861343 103.52541748 -18.05576874 102.70400269 -18.06314087 101.85769653 C-18.06582977 100.96513153 -18.06851868 100.07256653 -18.07128906 99.1529541 C-18.07786026 98.20615784 -18.08443146 97.25936157 -18.09120178 96.28387451 C-18.11090205 93.1528312 -18.12258856 90.02183573 -18.13256836 86.89074707 C-18.13664389 85.82071316 -18.14071941 84.75067924 -18.14491844 83.64822006 C-18.16576268 77.98736515 -18.18007297 72.32653438 -18.18945312 66.66564941 C-18.20052934 60.81903312 -18.23494818 54.97279618 -18.27462482 49.12631416 C-18.30076035 44.62929575 -18.30914213 40.13236829 -18.3127346 35.63528061 C-18.31760647 33.47991237 -18.32923747 31.32454835 -18.3477726 29.1692543 C-18.37210404 26.15309704 -18.37121007 23.13792934 -18.36425781 20.1217041 C-18.37706787 19.23318756 -18.38987793 18.34467102 -18.40307617 17.42922974 C-18.35728475 11.97516866 -17.64759966 8.7469073 -13.89428711 4.50793457 C-9.30045762 0.81337806 -5.75554647 -0.07155545 0 0 Z " fill="#B6DFF5" transform="translate(168.894287109375,270.4920654296875)"/>
<path d="M0 0 C0.7767681 -0.00623996 1.55353621 -0.01247993 2.35384274 -0.01890898 C4.94722615 -0.03481763 7.53966686 -0.02224351 10.13305664 -0.00964355 C11.99610949 -0.01506563 13.85915804 -0.02218877 15.72219849 -0.03088379 C20.77591095 -0.04910985 25.82929655 -0.04205252 30.88301468 -0.02936745 C36.17332079 -0.01923611 41.46359903 -0.0286335 46.75390625 -0.03491211 C55.63782777 -0.04218811 64.52161626 -0.032602 73.40551758 -0.0135498 C83.67460892 0.0082188 93.94338259 0.0011674 104.21246624 -0.02085543 C113.03131929 -0.03901072 121.85007675 -0.0415671 130.66894245 -0.03110075 C135.93518086 -0.02486656 141.20126998 -0.02402822 146.46749878 -0.0372467 C151.41866797 -0.04880641 156.36942783 -0.04077713 161.32055283 -0.01766968 C163.1369954 -0.01238325 164.95347245 -0.01389524 166.76990128 -0.02272034 C169.25087356 -0.03366226 171.73053676 -0.01992957 174.21142578 0 C175.28799139 -0.01338433 175.28799139 -0.01338433 176.38630581 -0.02703905 C181.40719771 0.05111877 184.22980298 1.3752415 188.10571289 4.50793457 C191.72053737 8.85364115 192.60664173 11.82044656 192.60742188 17.42785645 C192.61552635 18.4242086 192.61552635 18.4242086 192.62379456 19.44068909 C192.63622469 21.6198182 192.6198312 23.79761108 192.60180664 25.97668457 C192.60196176 27.50073312 192.60345296 29.02478207 192.60621643 30.54882812 C192.60759785 33.73638438 192.59508611 36.92348928 192.57226562 40.11096191 C192.54388134 44.18639617 192.54662155 48.26108103 192.55935574 52.33657074 C192.56632762 55.48169295 192.55850651 58.62664349 192.54609871 61.77174377 C192.54159884 63.27396485 192.54123456 64.77620445 192.54516411 66.27842712 C192.54809132 68.38200328 192.53149964 70.48456511 192.50976562 72.5880127 C192.50436264 73.78236938 192.49895966 74.97672607 192.49339294 76.20727539 C191.90930649 81.18011399 190.26893835 84.43195102 186.60571289 87.82043457 C182.35038722 90.6927794 178.61267259 90.65839901 173.66157532 90.66183472 C172.51463543 90.6684081 172.51463543 90.6684081 171.34452504 90.67511427 C168.77443999 90.68850177 166.20438924 90.69468104 163.63427734 90.70080566 C161.79462021 90.7087067 159.95496462 90.71697565 158.11531067 90.72558594 C152.06655355 90.75180688 146.01778951 90.7671141 139.96899414 90.78137207 C137.88678673 90.78673181 135.80457937 90.79210931 133.72237206 90.79750443 C125.06070334 90.81913365 116.39903649 90.8378702 107.7373476 90.84912682 C95.32421629 90.8653648 82.91139806 90.89853858 70.49838477 90.95552766 C61.77045827 90.99423187 53.04261549 91.01376011 44.31460541 91.01904738 C39.10182502 91.02270028 33.88937854 91.03471526 28.67669106 91.06715012 C23.77069482 91.09723887 18.86523441 91.10353961 13.95916557 91.09176636 C12.16127652 91.09154569 10.36336255 91.09984526 8.56555939 91.1174202 C-8.25923262 91.27290575 -8.25923262 91.27290575 -13.55237198 87.03843021 C-17.60527473 82.41596948 -18.27100455 77.50777484 -18.29833984 71.56628418 C-18.30863472 70.58434334 -18.30863472 70.58434334 -18.31913757 69.58256531 C-18.33728102 67.44157574 -18.33358756 65.30132744 -18.32788086 63.16027832 C-18.33244761 61.66007756 -18.33775465 60.15987889 -18.34376526 58.65968323 C-18.35267101 55.52527328 -18.35030114 52.3911185 -18.34033203 49.25671387 C-18.32882579 45.24958934 -18.34909105 41.24334391 -18.37824917 37.2363348 C-18.39663207 34.14183509 -18.39631496 31.04754547 -18.39061165 27.95300484 C-18.39045879 26.47588426 -18.39647357 24.99874912 -18.40890312 23.52168083 C-18.42385818 21.45396193 -18.41310747 19.38786028 -18.39599609 17.32019043 C-18.39582993 16.14661484 -18.39566376 14.97303925 -18.39549255 13.76390076 C-17.59425616 8.55885231 -15.28658618 5.63347701 -11.24120235 2.36316586 C-7.35508322 0.20904803 -4.32320826 -0.053748 0 0 Z " fill="#713708" transform="translate(168.894287109375,150.4920654296875)"/>
<path d="M0 0 C0 29.7 0 59.4 0 90 C-46.11114926 90.16121214 -46.11114926 90.16121214 -65.41992188 90.1953125 C-78.75714259 90.21905576 -92.09426229 90.24698236 -105.43139648 90.30175781 C-115.1443597 90.34162982 -124.85724105 90.36743385 -134.57028383 90.37635398 C-139.71317361 90.38156808 -144.85582917 90.39382034 -149.99864388 90.42292023 C-154.84050945 90.45009495 -159.68204459 90.45844078 -164.52397919 90.45243073 C-166.29970788 90.45353004 -168.07544777 90.46147166 -169.85111046 90.4768219 C-172.27944484 90.49678246 -174.70653867 90.49191773 -177.13490295 90.48101807 C-177.8343385 90.49266943 -178.53377404 90.5043208 -179.2544046 90.51632524 C-184.64198557 90.45115211 -187.65006739 88.95358318 -192 86 C-197.10668399 79.36131082 -196.21445417 71.23003789 -196.25 63.25 C-196.270625 62.10789063 -196.29125 60.96578125 -196.3125 59.7890625 C-196.34778521 52.11453014 -196.2882124 44.73865245 -191.00390625 38.73046875 C-186.48875794 36.12941452 -181.78410492 34.21100011 -176.9375 32.3125 C-175.8347876 31.87824707 -174.7320752 31.44399414 -173.59594727 30.99658203 C-133.8273959 15.5949049 -92.17021165 6.10265069 -49.8125 1.625 C-49.03946533 1.53923706 -48.26643066 1.45347412 -47.4699707 1.3651123 C-31.55425588 -0.36603794 -16.15366128 0 0 0 Z " fill="#FD3018" transform="translate(256,0)"/>
<path d="M0 0 C1.41357127 -0.00072321 1.41357127 -0.00072321 2.85569954 -0.00146103 C5.89263391 0.00151393 8.92857438 0.03192441 11.96533203 0.06347656 C13.84561694 0.06936101 15.72590839 0.07343969 17.60620117 0.07568359 C24.56194918 0.09661675 31.51755672 0.1524619 38.47314453 0.20410156 C54.02439453 0.28660156 69.57564453 0.36910156 85.59814453 0.45410156 C85.59814453 40.05410156 85.59814453 79.65410156 85.59814453 120.45410156 C62.54970703 120.57785156 62.54970703 120.57785156 39.03564453 120.70410156 C31.77004517 120.75872559 31.77004517 120.75872559 24.35766602 120.81445312 C18.42248535 120.83251953 18.42248535 120.83251953 15.64002991 120.83587646 C13.70530005 120.84200087 11.77058505 120.85603213 9.83595276 120.87640381 C6.89761006 120.90578591 3.96019664 120.90972228 1.02172852 120.90820312 C0.16628921 120.92259556 -0.6891501 120.93698799 -1.57051182 120.95181656 C-7.33396544 120.91206702 -10.64738891 119.74591149 -15.40185547 116.45410156 C-18.84347045 112.78304558 -19.51945696 109.21404945 -19.54902649 104.29299927 C-19.55618179 103.47158447 -19.5633371 102.65016968 -19.57070923 101.80386353 C-19.57339813 100.91129852 -19.57608704 100.01873352 -19.57885742 99.09912109 C-19.58542862 98.15232483 -19.59199982 97.20552856 -19.59877014 96.2300415 C-19.6184704 93.0989982 -19.63015692 89.96800272 -19.64013672 86.83691406 C-19.64421225 85.76688015 -19.64828777 84.69684624 -19.6524868 83.59438705 C-19.67333104 77.93353214 -19.68764133 72.27270137 -19.69702148 66.61181641 C-19.7080977 60.76520012 -19.74251654 54.91896317 -19.78219318 49.07248116 C-19.80832871 44.57546274 -19.81671049 40.07853529 -19.82030296 35.5814476 C-19.82517483 33.42607936 -19.83680583 31.27071534 -19.85534096 29.1154213 C-19.87967239 26.09926403 -19.87877843 23.08409633 -19.87182617 20.06787109 C-19.88463623 19.17935455 -19.89744629 18.29083801 -19.91064453 17.37539673 C-19.8648531 11.92133565 -19.15516802 8.69307429 -15.40185547 4.45410156 C-10.40209692 0.04732684 -6.34732674 -0.10519676 0 0 Z " fill="#C9E7F8" transform="translate(170.40185546875,270.5458984375)"/>
<path d="M0 0 C19.672394 -0.0679103 39.34469202 -0.12309383 59.01717377 -0.15543652 C68.15293089 -0.17085777 77.28860962 -0.19185578 86.42431641 -0.22631836 C94.3937255 -0.2563668 102.36307777 -0.27560939 110.33254194 -0.28226548 C114.54621389 -0.28615178 118.75972339 -0.29518426 122.9733429 -0.31719017 C126.95257352 -0.33780038 130.93157731 -0.3437852 134.91085625 -0.33932304 C136.3586749 -0.34013743 137.80650245 -0.34595526 139.25427437 -0.35761642 C155.44167668 -0.48142302 170.3071028 0.81568074 182.53125 12.3984375 C191.57928051 21.94587229 196.13056588 32.70093269 196 46 C195.18391071 50.83036635 193.9671758 54.05641385 190.4375 57.5 C186.34435387 60.01885916 183.41438829 60.1393904 178.69821167 60.12025452 C177.55633729 60.12153615 177.55633729 60.12153615 176.39139473 60.12284368 C173.82714977 60.1244977 171.26296946 60.11897837 168.69873047 60.11352539 C166.86594647 60.11324348 165.03316235 60.11340134 163.20037842 60.1139679 C158.21304278 60.1142557 153.22573101 60.10836165 148.23840094 60.10139394 C143.03069014 60.09515765 137.82297885 60.09455638 132.61526489 60.09336853 C122.74843771 60.09025603 112.88162156 60.08204373 103.01479924 60.07201904 C91.78401277 60.06085539 80.55322578 60.05534682 69.32243514 60.05032361 C46.21494923 60.03986106 23.10747845 60.02151658 0 60 C0 40.2 0 20.4 0 0 Z " fill="#E61E14" transform="translate(256,452)"/>
<path d="M0 0 C0.92746536 -0.00058411 1.85493073 -0.00116821 2.8105011 -0.00177002 C5.86249803 0.0010068 8.91350665 0.03208017 11.96533203 0.06347656 C14.08667467 0.07094037 16.20802422 0.07663264 18.32937622 0.08062744 C23.90262004 0.09587266 29.47544442 0.13514527 35.04852295 0.17944336 C41.74071587 0.22762896 48.43304933 0.24593533 55.12536621 0.26925659 C65.28325037 0.30799655 75.44021488 0.38465882 85.59814453 0.45410156 C85.59814453 30.15410156 85.59814453 59.85410156 85.59814453 90.45410156 C62.45981808 90.65464561 62.45981808 90.65464561 52.57470703 90.69824219 C45.83720134 90.7280979 39.10003635 90.76336579 32.36279297 90.83129883 C26.92924777 90.88574172 21.49606809 90.91554827 16.06227112 90.92848778 C13.99225615 90.93770555 11.92226053 90.95570592 9.85240173 90.98275185 C6.94625072 91.01920499 4.04159783 91.02404007 1.13525391 91.02172852 C0.28504669 91.0397049 -0.56516052 91.05768127 -1.44113159 91.07620239 C-7.47905909 91.02445133 -11.91799758 89.6309211 -16.40185547 85.45410156 C-19.14012567 80.76912198 -19.78118469 76.88625462 -19.8059082 71.51245117 C-19.81620308 70.53051033 -19.81620308 70.53051033 -19.82670593 69.5287323 C-19.84484938 67.38774273 -19.84115592 65.24749443 -19.83544922 63.10644531 C-19.84001597 61.60624456 -19.84532301 60.10604589 -19.85133362 58.60585022 C-19.86023937 55.47144027 -19.8578695 52.33728549 -19.84790039 49.20288086 C-19.83639415 45.19575633 -19.85665941 41.1895109 -19.88581753 37.18250179 C-19.90420043 34.08800208 -19.90388332 30.99371246 -19.89818001 27.89917183 C-19.89802715 26.42205125 -19.90404193 24.94491611 -19.91647148 23.46784782 C-19.93142654 21.40012892 -19.92067583 19.33402727 -19.90356445 17.26635742 C-19.90339828 16.09278183 -19.90323212 14.91920624 -19.90306091 13.71006775 C-19.0936377 8.45183553 -16.66568425 5.5680371 -12.73947144 2.10748291 C-8.33591483 -0.07394193 -4.84611039 -0.08040673 0 0 Z " fill="#994C0F" transform="translate(170.40185546875,150.5458984375)"/>
<path d="M0 0 C0.06954847 11.23972702 0.12283599 22.47940274 0.15543652 33.71930122 C0.17108411 38.93859591 0.19230601 44.15774324 0.22631836 49.37695312 C0.25894387 54.41495078 0.27685983 59.45280679 0.28463173 64.49090195 C0.29016949 66.41181543 0.3009834 68.33272127 0.31719017 70.25357437 C0.33900679 72.94672574 0.34196515 75.63929383 0.34057617 78.33251953 C0.351362 79.12446213 0.36214783 79.91640472 0.3732605 80.73234558 C0.34638778 85.55614623 -0.36586831 88.80654121 -3 93 C-8.3253963 97.92599158 -12.61012345 98.14378462 -19.60229492 98.11352539 C-20.48055435 98.11367142 -21.35881378 98.11381744 -22.26368713 98.1139679 C-25.16930605 98.11327072 -28.07486102 98.10548739 -30.98046875 98.09765625 C-32.99400294 98.09579138 -35.00753758 98.0943678 -37.02107239 98.09336853 C-42.32291922 98.08954879 -47.62473869 98.07972312 -52.92657471 98.06866455 C-58.33581167 98.05843877 -63.74505304 98.0538684 -69.15429688 98.04882812 C-79.76954327 98.03810039 -90.38476936 98.02103046 -101 98 C-100.12413915 97.35442564 -100.12413915 97.35442564 -99.23058414 96.69580936 C-92.29803168 91.42531221 -86.15630473 85.29389986 -80.02954102 79.12719727 C-79.17166489 78.26786087 -78.31378876 77.40852448 -77.42991638 76.52314758 C-75.10219838 74.19066367 -72.77668822 71.85600486 -70.45201993 69.5204823 C-68.01228162 67.07069877 -65.56924865 64.62420583 -63.12644958 62.17747498 C-56.93547945 55.9754599 -50.74878901 49.76918379 -44.5625 43.5625 C-37.85832656 36.83628707 -31.15340209 30.11083228 -24.44362587 23.39020771 C-21.53638049 20.4779714 -18.63159182 17.56331294 -15.72864258 14.64679444 C-13.50927914 12.41826239 -11.28673008 10.19291101 -9.06469727 7.96704102 C-8.25799591 7.15517334 -7.45129456 6.34330566 -6.62014771 5.50683594 C-5.88988876 4.7765065 -5.15962982 4.04617706 -4.40724182 3.29371643 C-3.7696119 2.6538659 -3.13198198 2.01401537 -2.47502995 1.35477543 C-1 0 -1 0 0 0 Z " fill="#81C7ED" transform="translate(361,293)"/>
<path d="M0 0 C5.48398925 4.56677826 10.54505045 9.42474382 15.56225586 14.49633789 C16.38923477 15.32798965 17.21621368 16.15964142 18.06825256 17.01649475 C19.85404272 18.81274265 21.63873506 20.61008252 23.42243767 22.4084034 C26.24910413 25.25718467 29.07965652 28.10204458 31.91175842 30.94541931 C39.96012421 39.02706402 48.00422856 47.11291695 56.0378418 55.20922852 C60.48466561 59.69067266 64.93690849 64.16665916 69.39515024 68.63674539 C71.74804653 70.99638102 74.09712889 73.35953647 76.44126701 75.72789192 C79.05673307 78.36991276 81.68142823 81.00243224 84.30834961 83.63305664 C85.0727536 84.4098175 85.83715759 85.18657837 86.62472534 85.98687744 C90.66075125 90.00798015 94.59128391 93.28475305 99.55556583 96.1027441 C100.27056075 96.54688577 100.27056075 96.54688577 101 97 C101 97.33 101 97.66 101 98 C89.38642119 98.09276853 77.77293084 98.16379998 66.15905666 98.20724869 C60.7659793 98.2281042 55.37315585 98.25638496 49.98022461 98.30175781 C44.77363153 98.34528772 39.56728236 98.36915242 34.36052132 98.37950897 C32.37622298 98.38688748 30.39193768 98.40129605 28.40774345 98.42292023 C25.62366997 98.45204905 22.84059836 98.45595203 20.05639648 98.45410156 C19.23999695 98.46848267 18.42359741 98.48286377 17.5824585 98.49768066 C11.92529257 98.45711872 8.67522496 97.21259951 4 94 C-0.49932678 89.2007181 -0.14211794 83.93235672 -0.11352539 77.65136719 C-0.11367142 76.81197601 -0.11381744 75.97258484 -0.1139679 75.10775757 C-0.11327207 72.33743696 -0.10549507 69.56718385 -0.09765625 66.796875 C-0.0957909 64.87445106 -0.09436755 62.95202664 -0.09336853 61.02960205 C-0.08955257 55.97272425 -0.07973012 50.91587523 -0.06866455 45.85900879 C-0.05843065 40.69767649 -0.05386667 35.53633953 -0.04882812 30.375 C-0.03810705 20.24998737 -0.02104165 10.12499608 0 0 Z " fill="#A4D8F4" transform="translate(151,293)"/>
</svg>
